<svg width="169" height="30" xmlns="http://www.w3.org/2000/svg"><path d="M37.461.437h13.61v29.124h-3.607V4.237H44.44V29.56h-3.606V4.237H37.46v-3.8zM55.84 19.212L57.08 5.72l1.24 13.492h-2.48zM54.87.437l-3.53 29.124h3.49l.623-6.547h3.255l.66 6.547h3.53L59.521.437h-4.653zM82.02 23.843c0 .845-.123 1.448-.369 1.811-.246.364-.628.545-1.144.545-.543 0-.931-.181-1.163-.545-.233-.363-.348-.966-.348-1.811V6.157c0-.842.122-1.447.368-1.813.246-.362.626-.544 1.143-.544.542 0 .93.182 1.164.544.232.366.349.97.349 1.813v17.686zm3.451-19.585a4.729 4.729 0 0 0-.233-1.004 6.43 6.43 0 0 0-.426-.895A4.76 4.76 0 0 0 83.01.634 5.102 5.102 0 0 0 80.508 0c-.906 0-1.74.214-2.5.634a4.736 4.736 0 0 0-1.804 1.725c-.18.32-.325.618-.427.895a5.458 5.458 0 0 0-.25 1.004c-.065.393-.105.867-.117 1.418-.014.554-.02 1.268-.02 2.14v14.323c0 .875.006 1.587.02 2.14.012.554.052 1.027.117 1.418.063.393.148.73.25 1.007.102.275.247.576.427.894a4.645 4.645 0 0 0 1.804 1.768c.76.422 1.594.634 2.5.634.905 0 1.738-.212 2.502-.634a4.667 4.667 0 0 0 1.803-1.768c.18-.318.323-.62.426-.894a4.73 4.73 0 0 0 .233-1.007c.05-.391.089-.864.116-1.418.025-.553.038-1.265.038-2.14V7.816c0-.872-.013-1.586-.038-2.14a18.731 18.731 0 0 0-.116-1.418zM71.038.438h3.606V29.56h-3.606l-4.265-15.28v15.28h-3.606V.437h3.102L71.038 17.6V.437zM36.732 19.932c.452 1.413.678 2.746.678 3.997 0 1.95-.452 3.45-1.357 4.5-.906 1.047-2.21 1.57-3.915 1.57-1.888 0-3.323-.742-4.304-2.226a6.13 6.13 0 0 1-.893-2.077c-.155-.71-.232-1.708-.232-2.988v-.764c0-.19.012-.461.037-.81l3.569-.173v1.265c0 1.515.135 2.556.406 3.123.272.567.757.849 1.454.849 1.088 0 1.63-.958 1.63-2.881 0-.465-.034-.901-.097-1.308a6.276 6.276 0 0 0-.35-1.268 10.052 10.052 0 0 0-.678-1.399 36.803 36.803 0 0 0-1.084-1.744L29.81 14.63a48.463 48.463 0 0 1-1.376-2.511 18.197 18.197 0 0 1-.911-2.098 11.27 11.27 0 0 1-.506-1.877 10.94 10.94 0 0 1-.154-1.856c0-1.923.478-3.45 1.436-4.586C29.254.57 30.548 0 32.175 0c1.242 0 2.275.37 3.104 1.112.826.743 1.369 1.785 1.627 3.125.052.261.092.488.118.675.024.192.043.403.057.635.013.233.019.523.019.873v1.441l-3.529.394c0-.757-.005-1.303-.02-1.639a7.93 7.93 0 0 0-.095-.983c-.13-1.223-.635-1.833-1.512-1.833-1.009 0-1.513.902-1.513 2.705 0 .439.019.827.059 1.159.037.335.14.707.31 1.113.167.41.427.916.775 1.528.35.613.82 1.428 1.416 2.446l1.82 2.97a20.63 20.63 0 0 1 1.921 4.212zM10.313 7.598v.983c0 .307-.026.75-.076 1.332H6.63c.051-.465.077-.83.077-1.092v-.917c0-1.601-.11-2.685-.329-3.253-.22-.567-.653-.85-1.3-.85-.595 0-.99.21-1.183.632-.192.421-.291 1.273-.291 2.553v16.028c0 1.279.099 2.13.29 2.553.195.424.589.632 1.185.632.646 0 1.08-.276 1.3-.828.218-.553.328-1.6.328-3.144 0-.437-.006-.881-.02-1.331a173.45 173.45 0 0 0-.057-1.684h3.607l.057 1.813c.014.423.02.84.02 1.245 0 5.152-1.745 7.73-5.235 7.73C1.69 30 0 27.67 0 23.014V6.986C0 2.33 1.691 0 5.079 0c3.49 0 5.234 2.532 5.234 7.598zM22.317 29.56h3.606V.437h-3.606v29.124zM17.762 9.762c-.014.42-.028.777-.04 1.067-.014.29-.04.525-.077.7-.04.174-.096.336-.174.481-.338.726-1.074 1.09-2.21 1.09h-.504V4.237h.503c.492 0 .905.058 1.24.173.337.118.594.315.776.59.18.28.311.67.39 1.179.076.511.114 1.158.114 1.944 0 .671-.006 1.216-.018 1.64zm2.616 4.387c.234-.466.42-.96.563-1.483a9.66 9.66 0 0 0 .29-1.77 30.39 30.39 0 0 0 .077-2.337c0-1.367-.111-2.532-.328-3.494-.22-.958-.55-1.79-.99-2.489a4.826 4.826 0 0 0-.852-1.025A3.504 3.504 0 0 0 18.05.895a6.22 6.22 0 0 0-1.453-.348 14.896 14.896 0 0 0-1.918-.11h-3.53v29.124h3.608V17.205c.284-.028.49-.052.618-.064.131-.015.351-.053.66-.112l2.095 12.532h3.876l-2.52-13.928c.36-.523.66-1.02.892-1.484zm90.216 9.693c0 .846-.125 1.449-.37 1.812-.245.364-.628.545-1.143.545-.544 0-.933-.181-1.164-.545-.232-.363-.349-.966-.349-1.812V6.158c0-.843.124-1.448.368-1.814.247-.363.627-.544 1.145-.544.542 0 .928.181 1.164.544.23.366.349.97.349 1.814v17.684zm3.45-19.584a4.86 4.86 0 0 0-.232-1.004 6.478 6.478 0 0 0-.427-.895 4.774 4.774 0 0 0-1.803-1.725 5.104 5.104 0 0 0-2.5-.634c-.907 0-1.741.214-2.504.634a4.757 4.757 0 0 0-1.803 1.725 6.4 6.4 0 0 0-.425.895 5.607 5.607 0 0 0-.254 1.004c-.062.393-.102.867-.113 1.418a83.63 83.63 0 0 0-.02 2.14v14.323c0 .875.005 1.587.02 2.14.01.554.05 1.027.113 1.418.066.393.15.73.254 1.007.102.275.245.576.425.894a4.663 4.663 0 0 0 1.803 1.768 5.086 5.086 0 0 0 2.503.634c.904 0 1.737-.211 2.5-.634a4.68 4.68 0 0 0 1.804-1.768c.18-.318.324-.62.427-.894.102-.278.179-.614.232-1.007.051-.391.09-.864.115-1.419.026-.552.04-1.264.04-2.139V7.816c0-.872-.014-1.586-.04-2.14a16.86 16.86 0 0 0-.115-1.418zm17.321 14.954l1.24-13.492 1.24 13.492h-2.48zM130.393.437l-3.527 29.124h3.489l.622-6.547h3.257l.659 6.547h3.528L135.047.437h-4.654zm23.566 22.401c0 1.134-.183 1.906-.546 2.315-.363.408-1.034.613-2.016.613h-.463V4.236h.463c.982 0 1.653.212 2.016.632.363.424.546 1.19.546 2.292v15.678zm.134-22.052c-.686-.233-1.66-.349-2.929-.349h-3.837v25.329h-4.963V.437h-3.605v29.124h12.405c1.268 0 2.243-.115 2.93-.347.684-.234 1.297-.655 1.84-1.268 1.088-1.163 1.628-2.865 1.628-5.108V7.16c0-2.209-.54-3.912-1.628-5.107-.543-.61-1.156-1.032-1.84-1.267zM122.9.437h3.605v29.124H122.9l-4.267-15.28v15.28h-3.605V.437h3.101l4.771 17.161V.438zm42.05 23.405c0 .846-.123 1.449-.368 1.812-.247.364-.63.545-1.145.545-.543 0-.932-.181-1.162-.545-.234-.363-.35-.966-.35-1.812V6.157c0-.842.122-1.446.365-1.813.248-.362.63-.544 1.147-.544.543 0 .929.182 1.163.544.233.367.35.97.35 1.813v17.685zm3.567-18.166a17.442 17.442 0 0 0-.118-1.418 4.642 4.642 0 0 0-.232-1.004 6.434 6.434 0 0 0-.428-.895 4.72 4.72 0 0 0-1.8-1.725A5.104 5.104 0 0 0 163.436 0c-.906 0-1.74.214-2.502.634a4.748 4.748 0 0 0-1.803 1.725c-.183.32-.324.618-.427.895a5.62 5.62 0 0 0-.25 1.004c-.067.393-.103.867-.116 1.418a85.295 85.295 0 0 0-.021 2.14V22.14c0 .874.007 1.586.021 2.138a10.1 10.1 0 0 0 .115 1.419c.066.393.149.73.251 1.007.103.275.244.576.427.894a4.661 4.661 0 0 0 1.803 1.768 5.082 5.082 0 0 0 2.502.634c.905 0 1.738-.212 2.501-.634a4.636 4.636 0 0 0 1.801-1.768c.182-.318.323-.62.428-.894.103-.278.181-.614.232-1.007.052-.391.092-.864.118-1.419a48.91 48.91 0 0 0 .038-2.138V7.816c0-.872-.013-1.585-.038-2.14zM99.599 9.762c-.011.421-.026.777-.037 1.067-.013.29-.04.525-.077.7-.04.173-.097.336-.175.481-.337.726-1.075 1.09-2.21 1.09h-.505V4.237h.506c.488 0 .905.058 1.239.173.335.118.593.314.775.59.181.28.31.67.388 1.179.078.511.116 1.158.116 1.944 0 .671-.006 1.216-.02 1.64zm2.619 4.387c.234-.466.42-.959.562-1.483.14-.524.236-1.115.29-1.77a29.43 29.43 0 0 0 .077-2.337c0-1.367-.11-2.532-.33-3.494-.22-.958-.548-1.79-.988-2.489a4.928 4.928 0 0 0-.85-1.025A3.535 3.535 0 0 0 99.89.895a6.236 6.236 0 0 0-1.455-.348 14.875 14.875 0 0 0-1.92-.11h-3.528V29.56h3.607V17.205c.286-.028.492-.052.62-.064.13-.016.35-.053.66-.112l2.091 12.532h3.88l-2.52-13.928c.361-.523.66-1.02.892-1.484z" fill="#FFF" fill-rule="evenodd"/></svg>